<?xml version="1.0" encoding="UTF-8"?>
<svg id="Layer_2" data-name="Layer 2" xmlns="http://www.w3.org/2000/svg" viewBox="0 0 645.64 80.49">
  <defs>
    <style>
      .cls-1 {
        fill: #a51c30;
        stroke-width: 0px;
      }
    </style>
  </defs>
  <g id="Layer_1-2" data-name="Layer 1">
    <g>
      <g>
        <path class="cls-1" d="m100.85,37.97c7.57-.14,11.73-3.82,11.73-10.43,0-6.96-4.64-11.74-12.96-11.74h-21.62v3.63h5.18v39.55h-5.18v3.62h22.92c8.8,0,13.92-5.26,13.92-12.76s-5.05-11.6-13.98-11.87Zm-9.14-18.54h4.71c4.29,0,7.09,4.09,7.09,8.86s-3,8.36-6.96,8.36h-4.84v-17.22Zm4.71,39.55h-4.71v-18.75h4.98c5.45,0,9.07,3.61,9.07,9.14s-3.14,9.61-9.34,9.61Z"/>
        <path class="cls-1" d="m237.05,15.8h-21.28v3.63h5.18v39.55h-5.18v3.62h21.21c6.68,0,11.53-2.74,15.82-6.83,4.64-4.5,7.16-10.37,7.16-16.64,0-12.62-10.03-23.34-22.92-23.34Zm-1.77,43.18h-5.52V19.43h5.79c7.98,0,14.8,9.68,14.8,19.71,0,10.71-6.48,19.84-15.07,19.84Z"/>
        <polygon class="cls-1" points="293.77 58.98 279.24 58.98 279.24 19.43 284.35 19.43 284.35 15.8 265.26 15.8 265.26 19.43 270.44 19.43 270.44 58.98 265.26 58.98 265.26 62.6 297.45 62.6 297.45 52.64 293.77 52.64 293.77 58.98"/>
        <polygon class="cls-1" points="333.38 58.98 318.58 58.98 318.58 40.84 329.49 40.84 329.49 45.61 333.17 45.54 333.17 32.11 329.49 32.18 329.49 36.81 318.58 36.81 318.58 19.43 332.77 19.43 332.77 25.63 336.38 25.63 336.38 15.8 304.6 15.8 304.6 19.43 309.78 19.43 309.78 58.98 304.6 58.98 304.6 62.6 337.07 62.6 337.07 52.64 333.38 52.64 333.38 58.98"/>
        <polygon class="cls-1" points="370.03 15.8 370.03 19.43 375.9 19.43 366.75 34.5 356.97 19.43 362.11 19.43 362.11 15.8 343.02 15.8 343.02 19.43 347.24 19.43 360.82 40.02 360.82 58.84 355.7 58.84 355.7 62.6 374.8 62.6 374.8 58.84 369.62 58.84 369.62 38.24 381.1 19.43 385.92 19.43 385.92 15.8 370.03 15.8"/>
        <path class="cls-1" d="m190.49,15.8h-5.27l-17.1,43.18h-6.12c-1.36-.13-2.19-.82-3.75-3.21l-9.69-14.86c6.41-1.99,9.1-5.94,9.1-12.08,0,0,.75-13.04-14.94-13.04h-19.4v3.63h5.19v39.55h-5.19v3.62h18.74v-3.62h-5.11v-17.32h2.83l10.98,16.92c2.32,3.62,3,4.02,7.03,4.02h20.3v-3.62h-5.53l4.56-11.45h16.37l4.44,11.45h-4.83v3.62h18.44v-3.62h-4.6l-16.43-43.18Zm-49.52,22.45h-4.02v-18.81h4.3c4.84,0,7.64,3.94,7.64,9.4s-3.2,9.42-7.91,9.42Zm37.72,5.39l6.89-17.05,6.48,17.05h-13.37Z"/>
      </g>
      <g>
        <path class="cls-1" d="m436.97,26.35v22.04c0,6.19-2.19,10.18-6.99,12.79-2.43,1.27-5.2,1.96-8.04,1.96-8.38,0-14.58-5.55-14.58-13.12v-23.66h-4.34v-2.14h13.76v2.14h-4.33v21.86c0,6.99,4.1,11.57,10.53,11.57s11.04-4.69,11.04-11.63v-21.81h-4.33v-2.14h11.62v2.14h-4.34Z"/>
        <path class="cls-1" d="m459.98,62.38v-2.14h4.34v-16.94c0-3.06-1.56-4.97-4.1-4.97s-3.93,1.1-8.97,6.88v15.04h4.4v2.14h-13.12v-2.14h4.39v-20.82h-5.03v-1.56l8.32-2.25h1.04v6.48c4.34-5.03,6.82-6.59,10.53-6.59,4.28,0,6.94,2.77,6.94,7.22v17.52h4.34v2.14h-13.08Z"/>
        <path class="cls-1" d="m476.47,62.38v-2.14h4.39v-20.82h-5.03v-1.56l8.32-2.25h1.05v24.63h4.39v2.14h-13.12Zm6.3-33.66c-1.68,0-3.01-1.33-3.01-3.06s1.33-3,3.01-3,3.07,1.32,3.07,3-1.33,3.06-3.07,3.06Z"/>
        <path class="cls-1" d="m513.08,38.33l-9.43,24.81h-1.16l-10.12-24.75-2.43-.06v-2.14h11.22v2.14h-4.04l6.88,17.06,6.47-17.06h-3.87v-2.14h8.91v2.14h-2.43Z"/>
        <path class="cls-1" d="m520.93,47.58v.64c0,7.23,3.81,12.26,9.31,12.26,2.31,0,3.88-.57,7.11-2.66l1.1,2.14c-4.33,2.49-6.36,3.18-9.72,3.18-7.34,0-12.55-5.67-12.55-13.65s5.26-13.99,12.43-13.99c6.24,0,10.53,4.28,10.53,10.52v1.56h-18.22Zm13.48-3.7c0-3.48-2.37-5.96-5.73-5.96-4.22,0-7.17,2.83-7.69,7.34h13.42v-1.39Z"/>
        <path class="cls-1" d="m559.59,41.62c-1.15-1.09-1.96-1.62-2.54-1.62-1.04,0-2.08.99-5.26,4.86v15.38h5.55v2.14h-14.29v-2.14h4.39v-20.82h-5.02v-1.56l8.32-2.25h1.04v6.48c4.16-5.32,5.66-6.59,7.75-6.59.69,0,1.27.17,1.62.52l1.79,1.56-3.36,4.05Z"/>
        <path class="cls-1" d="m575.47,63.13c-3.24,0-5.66-.75-7.34-2.3v2.08h-2.31v-8.22h2.66v1.57c0,2.48,3.24,4.68,6.82,4.68,3.18,0,5.55-1.68,5.55-3.99s-1.62-3.58-7.69-5.95c-5.55-2.14-7.52-4.28-7.52-7.92,0-4.5,3.64-7.57,8.97-7.57,2.54,0,4.51.64,6.13,1.96l.34-2.08h2.49l-1.39,8.33h-2.48c.23-.64.35-1.39.35-1.92,0-2.25-2.6-4.1-5.72-4.1s-4.97,1.62-4.97,4.1.4,2.77,7.4,5.61c5.66,2.25,7.46,4.17,7.46,7.86,0,4.63-3.58,7.86-8.73,7.86Z"/>
        <path class="cls-1" d="m588.7,62.38v-2.14h4.39v-20.82h-5.03v-1.56l8.33-2.25h1.04v24.63h4.39v2.14h-13.13Zm6.3-33.66c-1.68,0-3.01-1.33-3.01-3.06s1.33-3,3.01-3,3.06,1.32,3.06,3-1.33,3.06-3.06,3.06Z"/>
        <path class="cls-1" d="m636.74,36.19v2.14h3.87l-6.48,17.06-7-17.06h4.11v-2.14h-19.08v-7.57h-4.16v7.57h-5.03v2.14h5.03v18.97c0,3.53,2.02,5.62,5.38,5.62,2.14,0,3.29-.53,6.36-2.96l-.98-1.56c-1.96,1.16-2.72,1.39-3.93,1.39-1.91,0-2.66-.81-2.66-3.02v-18.44h10.29l9.37,22.96c-1.38,3.52-2.14,4.92-3.75,7.05-1.79,2.31-2.89,3.18-6.07,4.97l3.76,3.87c1.04-1.38,1.79-2.43,2.32-3.12,1.9-2.78,4.04-6.88,5.37-10.36l9.77-25.38h2.43v-2.14h-8.9Z"/>
      </g>
    </g>
    <path class="cls-1" d="m33.46,0C20.57,0,8.82,4.4,0,11.62v39.29c0,9.84,5.91,18.51,15.04,22.09l18.58,7.49,18.54-7.47c9.16-3.59,15.07-12.27,15.07-22.11V11.87C58.38,4.51,46.51,0,33.46,0Zm31.58,50.91c0,8.93-5.37,16.81-13.68,20.07l-17.74,7.15-17.76-7.16c-8.3-3.26-13.67-11.13-13.67-20.06V12.75C10.55,6.18,21.5,2.2,33.48,2.2s23.16,4.07,31.56,10.76v37.95ZM30.38,25.41h8.93v8.55h-8.93v-8.55Zm0,18.61h8.93v8.52h-8.93v-8.52Zm3.1-38.33c-10.01,0-19.61,3.04-27.81,8.81v36.42c0,7.49,4.5,14.09,11.47,16.83l16.47,6.64,16.46-6.63c6.98-2.74,11.49-9.35,11.49-16.83V14.68c-8.26-5.89-17.95-8.99-28.07-8.99Zm17.28,30.3l-3,3,3,2.99v14.4l-6.23,6.23h-28.34v-6.35l2.85-2.45v-29.67l-2.85-2.45v-6.32h28.34l6.23,6.23v14.4Zm-4.27-13.43l-3.53-3.49h-22.67l2.97,2.65v34.54l-2.97,2.68h22.65l3.56-3.54v-13.71l-2.7-2.7,2.7-2.7v-13.73Zm-20.33-.84h17.43v15.95h-17.43v-15.95Zm17.43,34.54h-17.43v-15.93h17.43v15.93Z"/>
  </g>
</svg>